Coordinates
version=1
nRows=4
nColumns=107
inDegrees=yes

Units are S.I. units (second, meters, Newtons, ...)
If the header above contains a line with 'inDegrees', this indicates whether rotational values are in degrees (yes) or radians (no).

endheader
time	sternoclavicular_r2	sternoclavicular_r3	unrotscap_r3	unrotscap_r2	acromioclavicular_r2	acromioclavicular_r3	acromioclavicular_r1	unrothum_r1	unrothum_r3	unrothum_r2	elv_angle	shoulder_elv	shoulder1_r2	shoulder_rot	elbow_flexion	pro_sup	deviation	flexion	proximal_distal_r1	proximal_distal_r3	cmc_flexion	cmc_abduction	mp_flexion	ip_flexion	mcp2_flexion	mcp2_abduction	pm2_flexion	md2_flexion	mcp3_flexion	mcp3_abduction	pm3_flexion	md3_flexion	mcp4_flexion	mcp4_abduction	pm4_flexion	md4_flexion	mcp5_flexion	mcp5_abduction	pm5_flexion	md5_flexion	bicpt_tx	bicpt_ty	bicpt_tz	bicpt2_tx	bicpt2_ty	bicpt2_tz	ptpt_tx	ptpt_ty	ptpt_tz	FCUpt_tx	FCUpt_ty	FCUpt_tz	EDCpt_tx	EDCpt_ty	EDCpt_tz	APLpt_tx	APLpt_ty	APLpt_tz	FPLpt_tx	FPLpt_ty	FPLpt_tz	FPLpt2_tx	FPLpt2_ty	FPLpt2_tz	PEC1pt2_tx	PEC1pt2_ty	PEC1pt2_tz	PEC1pt3_tx	PEC1pt3_ty	PEC1pt3_tz	PEC2pt2_tx	PEC2pt2_ty	PEC2pt2_tz	PEC2pt3_tx	PEC2pt3_ty	PEC2pt3_tz	PEC3pt2_tx	PEC3pt2_ty	PEC3pt2_tz	PEC3pt3_tx	PEC3pt3_ty	PEC3pt3_tz	DELT2pt2a_tx	DELT2pt2a_ty	DELT2pt2a_tz	DELT2pt2_tx	DELT2pt2_ty	DELT2pt2_tz	LAT1pt2_tx	LAT1pt2_ty	LAT1pt2_tz	LAT1pt3_tx	LAT1pt3_ty	LAT1pt3_tz	LAT2pt2_tx	LAT2pt2_ty	LAT2pt2_tz	LAT2pt3_tx	LAT2pt3_ty	LAT2pt3_tz	LAT3pt2_tx	LAT3pt2_ty	LAT3pt2_tz	LAT3pt3_tx	LAT3pt3_ty	LAT3pt3_tz
      0.00000000	     -0.32112587	      0.13601376	     -0.13601376	      0.32112587	     -0.06502146	      0.52548055	      0.23619989	     -0.23619989	     -0.52548055	      0.06502146	     99.93287490	     76.02940515	     -1.74415770	    -27.15305417	     29.08883348	     63.50409896	      0.31634013	     -0.65750042	      0.34740932	     -0.32875021	     19.66764337	    -16.78251474	     -2.67750967	     -0.28823954	     85.36178832	      9.54894156	     79.96436260	     64.00286353	     84.74296137	     -1.89201661	     84.94067330	     54.71646280	     69.82098645	    -10.97579037	    103.19315529	     35.29513008	     46.53110585	    -12.57686728	     77.63103367	      4.83064254	      0.00086217	     -0.03093402	     -0.00483702	      0.01598643	     -0.01810212	     -0.00457367	      0.00285776	     -0.06793408	     -0.00516560	      0.01023185	     -0.18292769	     -0.00034527	     -0.00762047	      0.00242161	     -0.00017201	      0.00031068	      0.00012427	      0.00062136	      0.00039767	      0.00119301	      0.00067107	      0.00001264	     -0.00027679	     -0.00033215	      0.00249208	      0.00874339	      0.00608236	     -0.00815205	      0.01968318	     -0.01866946	      0.00249208	      0.00874339	      0.00608236	      0.00054910	      0.01824707	     -0.00958816	      0.00394273	      0.00486209	      0.01595489	      0.00000000	      0.00773039	      0.00000000	     -0.00713832	     -0.03298834	     -0.00637379	      0.01756180	     -0.00066112	     -0.00616322	     -0.00088701	      0.01486799	     -0.00608236	      0.00244984	      0.02145721	     -0.01774021	     -0.00595564	      0.01288277	     -0.00544878	     -0.01241815	      0.02720165	     -0.03045403	     -0.02331570	      0.01440336	     -0.00730728	     -0.01545933	      0.03142551	     -0.03805697
      0.03333333	     -0.32235683	      0.13653514	     -0.13653514	      0.32235683	     -0.06527070	      0.52749485	      0.23710530	     -0.23710530	     -0.52749485	      0.06527070	     99.66463321	     76.32084501	     -1.73947600	    -25.75700989	     29.02563359	     62.27436910	      0.32526455	     -0.64455270	      0.35483420	     -0.32227635	     20.21651798	    -16.86031060	     -3.63021536	      0.09219887	     85.46050004	      9.64992370	     80.52652101	     62.55675823	     84.58337607	     -1.48861737	     84.89803609	     54.84086622	     70.77947929	    -10.97352809	    102.06366897	     37.64594078	     46.03123928	    -12.75207070	     82.42200785	      4.81781364	      0.00086008	     -0.03092678	     -0.00483586	      0.01604858	     -0.01808496	     -0.00474444	      0.00294863	     -0.06787532	     -0.00506653	      0.01009935	     -0.18296127	     -0.00035775	     -0.00747291	      0.00236289	     -0.00014791	      0.00031156	      0.00012463	      0.00062313	      0.00039880	      0.00119641	      0.00067298	      0.00001129	     -0.00027835	     -0.00033402	      0.00250163	      0.00877690	      0.00610567	     -0.00818330	      0.01975864	     -0.01874102	      0.00250163	      0.00877690	      0.00610567	      0.00055121	      0.01831702	     -0.00962491	      0.00395376	      0.00488073	      0.01598186	      0.00000000	      0.00779019	      0.00000000	     -0.00716569	     -0.03311479	     -0.00642343	      0.01687696	     -0.00061498	     -0.00554663	     -0.00089041	      0.01492498	     -0.00610567	      0.00245923	      0.02153946	     -0.01780821	     -0.00597847	      0.01293215	     -0.00546967	     -0.01246575	      0.02730593	     -0.03057076	     -0.02340508	      0.01445857	     -0.00733529	     -0.01551858	      0.03154598	     -0.03820286
      0.06666667	     -0.32240923	      0.13655733	     -0.13655733	      0.32240923	     -0.06528131	      0.52758058	      0.23714384	     -0.23714384	     -0.52758058	      0.06528131	     99.67744932	     76.33325009	     -1.73969968	    -25.75615166	     29.04094451	     62.27450528	      0.32528600	     -0.64458106	      0.35485186	     -0.32229053	     20.21682583	    -16.86017565	     -3.62980715	      0.09230269	     85.46045370	      9.64976474	     80.52655759	     62.55694110	     84.58270145	     -1.48822133	     84.89789561	     54.84099403	     70.78095476	    -10.97366355	    102.06383622	     37.64599476	     46.03336313	    -12.75167240	     82.42444281	      4.81820221	      0.00086058	     -0.03092854	     -0.00483614	      0.01604848	     -0.01808912	     -0.00474436	      0.00294862	     -0.06787533	     -0.00506655	      0.01009937	     -0.18296126	     -0.00035772	     -0.00747292	      0.00236291	     -0.00014794	      0.00031155	      0.00012462	      0.00062310	      0.00039878	      0.00119634	      0.00067294	      0.00001129	     -0.00027835	     -0.00033403	      0.00250204	      0.00877833	      0.00610667	     -0.00818463	      0.01976185	     -0.01874407	      0.00250204	      0.00877833	      0.00610667	      0.00055130	      0.01832000	     -0.00962648	      0.00395423	      0.00488152	      0.01598300	      0.00000000	      0.00779274	      0.00000000	     -0.00716685	     -0.03312018	     -0.00642554	      0.01687627	     -0.00061496	     -0.00554653	     -0.00089056	      0.01492740	     -0.00610667	      0.00245963	      0.02154296	     -0.01781111	     -0.00597944	      0.01293426	     -0.00547055	     -0.01246777	      0.02731036	     -0.03057573	     -0.02340888	      0.01446092	     -0.00733648	     -0.01552111	      0.03155110	     -0.03820906
      0.10000000	     -0.32024899	      0.13564236	     -0.13564236	      0.32024899	     -0.06484391	      0.52404564	      0.23555491	     -0.23555491	     -0.52404564	      0.06484391	    100.37989634	     75.82179514	     -1.75195969	    -28.89195276	     28.91737496	     64.35586844	      0.29072086	     -0.70291040	      0.32537042	     -0.35145520	     20.04574922	    -16.70291495	     -2.37179298	     -0.01297621	     86.10048947	      9.73663572	     80.16753710	     64.53626133	     84.91427312	     -0.79597333	     84.37609566	     56.77459188	     72.21163940	    -10.98264810	    101.20200682	     38.11894721	     46.89734144	    -12.73211743	     93.62043824	      5.44512587	      0.00085650	     -0.03091437	     -0.00483386	      0.01594135	     -0.01805555	     -0.00445414	      0.00279483	     -0.06797477	     -0.00523421	      0.01032390	     -0.18290418	     -0.00033595	     -0.00772269	      0.00246256	     -0.00018918	      0.00030541	      0.00012216	      0.00061081	      0.00039092	      0.00117276	      0.00065968	      0.00001171	     -0.00027791	     -0.00033349	      0.00248527	      0.00871951	      0.00606575	     -0.00812979	      0.01962944	     -0.01861848	      0.00248527	      0.00871951	      0.00606575	      0.00054760	      0.01819725	     -0.00956198	      0.00393485	      0.00484881	      0.01593556	      0.00000000	      0.00768794	      0.00000000	     -0.00711883	     -0.03289826	     -0.00633854	      0.01837864	     -0.00071945	     -0.00696681	     -0.00088459	      0.01482739	     -0.00606575	      0.00244315	      0.02139861	     -0.01769177	     -0.00593938	      0.01284759	     -0.00543390	     -0.01238424	      0.02712738	     -0.03037087	     -0.02325204	      0.01436403	     -0.00728732	     -0.01541711	      0.03133970	     -0.03795305
